<svg width="150" height="40" viewBox="0 0 150 40" fill="none" xmlns="http://www.w3.org/2000/svg">
  <path d="M10 8H30V12H10V8Z" fill="#2c3e50"/>
  <path d="M15 16H40V20H15V16Z" fill="#2c3e50"/>
  <path d="M20 24H35V28H20V24Z" fill="#2c3e50"/>
  <path d="M10 32H25V36H10V32Z" fill="#2c3e50"/>
  <path d="M58.344 29V11.8H61.464L69.864 23.296H68.424L76.776 11.8H79.896L79.944 29H76.584L76.536 16.376H77.208L69.864 26.536H68.328L60.984 16.376H61.704V29H58.344ZM92.6539 29.288C90.9579 29.288 89.4779 28.904 88.2139 28.136C86.9499 27.368 85.9739 26.296 85.2859 24.92C84.5979 23.544 84.2539 21.968 84.2539 20.192C84.2539 18.416 84.5979 16.84 85.2859 15.464C85.9739 14.088 86.9499 13.016 88.2139 12.248C89.4779 11.48 90.9579 11.096 92.6539 11.096C94.3499 11.096 95.8299 11.48 97.0939 12.248C98.3579 13.016 99.3339 14.088 100.022 15.464C100.71 16.84 101.054 18.416 101.054 20.192C101.054 21.968 100.71 23.544 100.022 24.92C99.3339 26.296 98.3579 27.368 97.0939 28.136C95.8299 28.904 94.3499 29.288 92.6539 29.288ZM92.6539 26.152C93.9339 26.152 94.9899 25.592 95.8219 24.472C96.6539 23.352 97.0699 21.904 97.0699 20.128C97.0699 18.352 96.6539 16.904 95.8219 15.784C94.9899 14.664 93.9339 14.104 92.6539 14.104C91.3739 14.104 90.3179 14.664 89.4859 15.784C88.6539 16.904 88.2379 18.352 88.2379 20.128C88.2379 21.904 88.6539 23.352 89.4859 24.472C90.3179 25.592 91.3739 26.152 92.6539 26.152Z" fill="#2c3e50"/>
</svg>
